<?xml version="1.0" encoding="UTF-8"?>
<svg width="66px" height="66px" viewBox="0 0 66 66" version="1.1" xmlns="http://www.w3.org/2000/svg" xmlns:xlink="http://www.w3.org/1999/xlink">
    <g id="Page-1" stroke="none" stroke-width="1" fill="none" fill-rule="evenodd">
        <g id="Desktop-HD" transform="translate(-793.000000, -847.000000)">
            <g id="section2" transform="translate(-273.000000, 661.000000)">
                <g id="os-card" transform="translate(1067.000000, 182.000000)">
                    <g id="apple" transform="translate(0.000000, 5.000000)">
                        <circle id="Oval" stroke="#1E140C" stroke-width="2" cx="32" cy="32" r="32"></circle>
                        <path d="M42.7873039,31.0808842 C42.7702798,27.9673715 44.1832739,25.6173906 47.0433102,23.8867187 C45.4430518,21.6046072 43.0256402,20.3490217 39.8336355,20.1029948 C36.811871,19.8654516 33.5092101,21.8591178 32.3005043,21.8591178 C31.0237024,21.8591178 28.09557,20.1878317 25.7973266,20.1878317 C21.0476235,20.2641849 16,23.9630719 16,31.4881011 C16,33.7108268 16.4085766,36.0070777 17.2257298,38.376854 C18.3152674,41.4903666 22.2478173,49.1256838 26.3506074,48.9984286 C28.4956346,48.9475264 30.0107729,47.4798488 32.802713,47.4798488 C35.509533,47.4798488 36.9140151,48.9984286 39.3058907,48.9984286 C43.4427288,48.9390428 47.0007501,41.9993878 48.0392157,38.8773914 C42.4893834,36.2728999 42.7873039,31.2420742 42.7873039,31.0808842 Z M37.9695047,17.1506722 C40.2932842,14.401958 40.0804838,11.8992707 40.0123877,11 C37.9609927,11.1187716 35.5861412,12.3913245 34.2327311,13.9608063 C32.7431289,15.6405761 31.8663916,17.7190791 32.0536559,20.0605764 C34.2752912,20.2302501 36.3011502,19.0934362 37.9695047,17.1506722 Z" id="Shape" fill="#1E140C" fill-rule="nonzero"></path>
                    </g>
                </g>
            </g>
        </g>
    </g>
</svg>