<?xml version="1.0" encoding="UTF-8"?>
<svg width="66px" height="66px" viewBox="0 0 66 66" version="1.1" xmlns="http://www.w3.org/2000/svg" xmlns:xlink="http://www.w3.org/1999/xlink">
    <g id="Page-1" stroke="none" stroke-width="1" fill="none" fill-rule="evenodd">
        <g id="Desktop-HD" transform="translate(-350.000000, -847.000000)">
            <g id="section2" transform="translate(-273.000000, 661.000000)">
                <g id="os-card" transform="translate(624.000000, 182.000000)">
                    <g id="android" transform="translate(0.000000, 5.000000)">
                        <circle id="Oval" stroke="#1E140C" stroke-width="2" cx="32" cy="32" r="32"></circle>
                        <path d="M19.808,27.4505276 L19.808,37.7109144 C19.808,39.0754218 18.7391667,40.1652556 17.3788333,40.1652556 C16.0273333,40.1652556 14.72,39.0665614 14.72,37.7109144 L14.72,27.4505276 C14.72,26.1126015 16.0273333,25.0139072 17.3788333,25.0139072 C18.7126667,25.0139072 19.808,26.1126015 19.808,27.4505276 Z M20.762,41.3614147 C20.762,42.8145265 21.928,43.9841043 23.3766667,43.9841043 L25.1345,43.9841043 L25.161,49.3978317 C25.161,52.6673332 30.037,52.6407519 30.037,49.3978317 L30.037,43.9841043 L33.323,43.9841043 L33.323,49.3978317 C33.323,52.6496123 38.2255,52.6584728 38.2255,49.3978317 L38.2255,43.9841043 L40.0098333,43.9841043 C41.4408333,43.9841043 42.6068333,42.8145265 42.6068333,41.3614147 L42.6068333,25.4657895 L20.762,25.4657895 L20.762,41.3614147 Z M42.6686667,24.6063271 L20.6648333,24.6063271 C20.6648333,20.8140598 22.9261667,17.5179769 26.2828333,15.799052 L24.5956667,12.6713175 C24.3483333,12.2371561 24.9755,11.9624825 25.1875,12.3346209 L26.9011667,15.4889367 C29.984,14.1155689 33.5261667,14.1864524 36.4676667,15.4889367 L38.1725,12.3434813 C38.3933333,11.9624825 39.0116667,12.2460165 38.7643333,12.680178 L37.0771667,15.799052 C40.4073333,17.5179769 42.6686667,20.8140598 42.6686667,24.6063271 L42.6686667,24.6063271 Z M27.5901667,19.6887842 C27.5901667,19.1837392 27.1838333,18.7584382 26.6626667,18.7584382 C26.1591667,18.7584382 25.7616667,19.1837392 25.7616667,19.6887842 C25.7616667,20.1938291 26.168,20.6191301 26.6626667,20.6191301 C27.1838333,20.6191301 27.5901667,20.1938291 27.5901667,19.6887842 Z M37.6071667,19.6887842 C37.6071667,19.1837392 37.2008333,18.7584382 36.7061667,18.7584382 C36.185,18.7584382 35.7786667,19.1837392 35.7786667,19.6887842 C35.7786667,20.1938291 36.185,20.6191301 36.7061667,20.6191301 C37.2008333,20.6191301 37.6071667,20.1938291 37.6071667,19.6887842 Z M45.9811667,25.0139072 C44.6473333,25.0139072 43.552,26.0860202 43.552,27.4505276 L43.552,37.7109144 C43.552,39.0754218 44.6473333,40.1652556 45.9811667,40.1652556 C47.3415,40.1652556 48.64,39.0665614 48.64,37.7109144 L48.64,27.4505276 C48.64,26.0860202 47.3326667,25.0139072 45.9811667,25.0139072 Z" id="Shape" fill="#1E140C" fill-rule="nonzero"></path>
                    </g>
                </g>
            </g>
        </g>
    </g>
</svg>